<?xml version="1.0" standalone="no"?>
<!DOCTYPE svg PUBLIC "-//W3C//DTD SVG 20010904//EN"
 "http://www.w3.org/TR/2001/REC-SVG-20010904/DTD/svg10.dtd">
<svg version="1.0" xmlns="http://www.w3.org/2000/svg"
 width="1769.000000pt" height="1023.000000pt" viewBox="0 0 1769.000000 1023.000000"
 preserveAspectRatio="xMidYMid meet">

<g transform="translate(0.000000,1023.000000) scale(0.100000,-0.100000)"
fill="#344584" stroke="none">
<path d="M4573 10010 c-284 -8 -669 -36 -978 -71 -99 -12 -225 -25 -280 -30
-55 -5 -120 -13 -145 -18 -25 -5 -94 -17 -155 -26 -163 -24 -275 -43 -420 -71
-71 -13 -157 -29 -190 -35 -93 -16 -434 -98 -565 -135 -47 -14 -125 -37 -175
-51 -49 -14 -115 -35 -145 -46 -30 -11 -68 -23 -85 -27 -65 -18 -260 -91 -380
-144 -16 -7 -46 -19 -65 -27 -57 -22 -310 -152 -385 -199 -120 -73 -227 -155
-307 -233 -176 -174 -248 -320 -248 -506 0 -462 298 -765 865 -879 135 -28
164 -31 350 -42 167 -10 567 2 680 20 33 5 107 16 165 25 268 41 557 130 535
165 -2 4 -49 11 -102 15 -325 24 -529 107 -693 281 -90 95 -141 179 -183 301
-48 136 -64 348 -37 493 34 184 194 354 445 470 129 60 438 159 545 174 25 4
81 15 125 25 44 10 132 26 195 35 63 10 135 21 160 26 25 5 95 14 155 20 61 6
144 15 185 20 156 20 753 57 1125 69 307 10 1107 10 1365 0 639 -24 1258 -66
1625 -109 374 -45 783 -103 823 -118 23 -8 12 -24 -80 -121 -50 -53 -118 -130
-151 -171 -217 -271 -422 -686 -567 -1150 -18 -58 -41 -132 -51 -164 -11 -33
-19 -64 -19 -70 0 -5 -11 -47 -25 -93 -28 -91 -70 -236 -87 -298 -6 -22 -15
-53 -19 -70 -5 -16 -14 -49 -20 -73 -20 -82 -1 -78 -400 -85 -322 -6 -604 -25
-766 -52 -95 -17 -288 -57 -312 -66 -14 -6 -44 -14 -66 -19 -167 -34 -486
-197 -684 -348 -85 -66 -260 -235 -348 -337 -171 -200 -353 -505 -458 -770
-49 -126 -54 -139 -84 -235 -102 -319 -151 -642 -151 -989 0 -148 21 -436 40
-546 6 -33 15 -87 21 -119 5 -32 17 -86 25 -120 9 -34 19 -80 24 -103 13 -61
66 -227 101 -319 85 -222 204 -443 328 -609 254 -341 508 -524 826 -596 92
-21 362 -19 450 4 84 21 180 60 255 102 86 48 81 48 202 -7 219 -98 594 -235
836 -303 49 -14 64 -23 68 -41 3 -12 4 -229 1 -481 -5 -522 -13 -610 -69 -723
-27 -52 -44 -72 -88 -102 -55 -36 -55 -37 -56 -90 -3 -85 -3 -85 165 -41 52
13 121 37 154 53 64 30 71 30 132 -8 21 -14 75 -38 120 -53 75 -27 90 -29 242
-29 158 0 165 1 239 30 153 61 261 164 327 311 39 86 45 103 61 170 35 147 38
183 35 430 -2 151 0 252 6 258 6 5 34 5 70 0 33 -5 107 -15 165 -24 58 -8 134
-19 170 -25 36 -6 123 -16 194 -24 84 -9 132 -19 137 -28 10 -16 2 -394 -12
-583 -16 -207 -49 -286 -144 -349 l-55 -36 0 -60 c0 -41 4 -60 13 -61 50 -5
195 32 285 73 78 34 92 35 147 3 23 -14 79 -39 124 -55 78 -29 89 -30 241 -30
169 0 197 5 310 58 81 38 196 156 247 257 76 149 113 323 113 537 0 177 -8
171 185 163 382 -16 1616 -1 1940 24 72 6 247 17 390 26 143 8 305 20 360 25
55 6 145 15 200 20 192 19 211 21 337 36 170 19 338 41 418 54 36 6 112 17
170 25 58 8 130 19 160 25 30 6 114 22 185 35 72 13 159 31 195 38 220 49 278
63 395 93 220 57 265 70 425 127 233 83 268 96 319 119 505 227 765 451 882
763 33 89 39 334 11 455 -33 140 -37 151 -85 248 -119 241 -361 428 -692 536
-215 69 -470 107 -850 125 -317 16 -509 -20 -703 -130 -66 -39 -196 -159 -184
-171 5 -5 69 -13 143 -18 468 -33 767 -244 860 -605 30 -116 33 -297 6 -395
-51 -188 -165 -345 -354 -487 -75 -57 -115 -81 -278 -169 -59 -31 -207 -95
-255 -109 -14 -4 -38 -13 -55 -20 -209 -86 -910 -238 -1240 -270 -59 -6 -135
-15 -290 -35 -44 -5 -147 -14 -230 -20 -82 -5 -211 -14 -285 -20 -337 -24
-565 -31 -1115 -34 -608 -4 -977 5 -1001 24 -7 6 -33 53 -58 103 -25 51 -66
116 -94 147 -55 62 -174 134 -237 145 -40 7 -65 20 -65 36 0 4 34 31 75 59
196 136 295 371 295 705 0 180 -34 342 -94 448 -67 119 -186 207 -306 226 -81
13 -204 14 -291 1 -69 -10 -229 -71 -250 -96 -16 -20 -43 -17 -97 10 -50 25
-82 36 -202 67 -117 30 -120 28 -120 -62 0 -45 3 -50 38 -73 74 -47 111 -105
140 -216 25 -93 33 -271 39 -807 6 -633 16 -574 -96 -555 -283 47 -491 86
-681 128 -169 37 -187 42 -280 84 -47 21 -104 43 -127 50 -26 6 -43 17 -43 25
0 8 31 37 69 65 198 144 290 367 291 701 0 342 -95 550 -296 646 -65 31 -82
34 -190 40 -65 3 -151 1 -190 -5 -75 -11 -185 -50 -246 -89 -47 -29 -55 -29
-115 1 -26 13 -91 36 -143 51 -128 37 -140 42 -140 62 0 9 11 48 24 87 20 60
99 314 150 486 13 43 35 115 220 720 46 151 121 397 166 545 80 263 129 423
211 690 22 72 45 141 52 155 l13 25 384 3 c212 1 396 0 409 -3 23 -6 24 -9 18
-71 -4 -36 -15 -111 -26 -167 -26 -131 -107 -568 -132 -712 -6 -33 -14 -80
-19 -105 -5 -25 -14 -117 -21 -205 -37 -480 111 -792 436 -922 l70 -28 470 0
470 0 58 27 c113 53 211 189 242 339 18 85 19 228 1 324 -24 136 -81 226 -181
286 -40 24 -41 24 -377 27 -270 3 -339 6 -348 17 -13 15 -5 82 29 250 11 55
32 163 46 240 42 228 65 353 90 480 13 66 26 137 30 157 11 69 8 68 288 68
283 0 316 6 397 65 176 130 245 417 165 696 -19 66 -41 105 -87 155 -72 78
-103 87 -335 93 -111 3 -205 9 -209 14 -9 8 8 140 36 287 10 52 30 160 45 240
14 80 35 192 47 250 11 58 24 130 28 160 4 30 17 105 29 165 11 61 30 162 41
225 12 63 31 171 44 240 14 69 27 145 30 170 4 25 11 60 17 79 11 31 14 33 46
28 l34 -6 -31 29 -31 29 8 73 c4 40 7 127 6 193 -1 102 -5 131 -28 195 -47
130 -129 217 -249 262 -69 27 -225 34 -394 19 -159 -15 -341 -43 -427 -67 -33
-9 -73 -20 -90 -24 -42 -12 -81 -25 -145 -50 -101 -39 -110 -41 -169 -24 -31
9 -72 19 -91 24 -19 4 -62 16 -95 25 -140 39 -395 99 -620 145 -348 73 -1010
168 -1320 191 -66 4 -201 15 -300 24 -325 28 -1076 39 -1642 25z m4645 -1383
c14 -16 -13 -191 -79 -506 -11 -51 -24 -119 -28 -150 -5 -31 -25 -144 -46
-251 -20 -107 -40 -218 -45 -246 -5 -29 -18 -98 -30 -155 -11 -57 -25 -127
-31 -156 -5 -28 -16 -56 -23 -62 -9 -8 -118 -10 -351 -9 -294 3 -339 5 -348
19 -7 11 6 64 47 195 77 240 137 420 166 489 4 11 26 65 48 120 174 432 336
623 592 700 89 27 114 29 128 12z m-2210 -2576 c4 -24 -4 -57 -33 -146 -7 -22
-28 -87 -45 -145 -17 -58 -45 -150 -62 -205 -17 -55 -41 -136 -55 -180 -13
-44 -32 -105 -42 -135 -10 -30 -28 -89 -40 -130 -13 -41 -33 -109 -45 -150
-13 -41 -33 -109 -46 -150 -12 -41 -28 -93 -35 -115 -33 -101 -96 -307 -115
-375 -12 -41 -28 -93 -35 -115 -7 -22 -30 -94 -50 -160 -130 -429 -210 -621
-326 -785 -228 -319 -540 -370 -794 -128 -250 236 -385 604 -385 1044 0 253
33 451 118 704 156 467 457 835 822 1007 179 84 372 142 551 164 118 15 342
26 489 25 125 -1 125 -1 128 -25z m69 -2852 c155 -86 191 -237 195 -812 1
-213 -2 -311 -9 -318 -8 -8 -30 -4 -80 14 -37 14 -124 44 -193 67 -69 23 -134
45 -145 50 -61 25 -219 85 -248 94 -22 7 -33 34 -21 52 172 242 266 414 384
699 23 55 45 109 50 120 4 11 11 28 14 38 7 21 7 21 53 -4z m747 -63 c92 -54
143 -172 172 -398 29 -231 5 -494 -57 -624 -58 -123 -140 -177 -239 -158 l-45
9 1 582 c0 459 3 585 14 597 20 25 105 21 154 -8z m1994 10 c84 -44 142 -155
177 -336 21 -105 20 -443 0 -542 -26 -121 -54 -185 -108 -244 -51 -56 -89 -74
-158 -74 -75 0 -70 -42 -67 601 2 470 6 579 17 592 17 21 101 23 139 3z m-17
-1388 c66 -22 138 -76 173 -130 45 -69 54 -103 29 -116 -30 -15 -302 17 -329
39 -18 15 -20 189 -2 207 15 15 85 15 129 0z m-2016 -258 c43 -11 108 -25 144
-31 80 -14 119 -33 130 -62 4 -12 16 -80 26 -150 14 -104 16 -168 12 -335 -7
-240 -28 -356 -84 -466 -22 -42 -93 -116 -123 -128 -34 -14 -115 -11 -140 4
-12 7 -31 28 -42 47 -43 69 -49 139 -55 638 -3 260 -3 479 0 488 8 20 38 19
132 -5z m2097 -305 c95 -9 183 -18 195 -20 31 -7 37 -63 30 -280 -5 -151 -10
-196 -32 -279 -46 -175 -107 -264 -198 -291 -96 -28 -161 14 -193 126 -21 74
-33 721 -14 744 15 18 2 18 212 0z"/>
<path d="M11120 7741 c-49 -10 -71 -24 -114 -71 -63 -70 -114 -199 -141 -360
-15 -86 -40 -214 -75 -395 -11 -55 -32 -165 -46 -245 -14 -80 -36 -201 -49
-270 -93 -485 -101 -556 -80 -674 18 -104 59 -188 125 -256 69 -71 100 -84
200 -85 81 0 88 2 125 32 92 73 159 244 209 538 9 50 24 128 34 175 22 99 19
97 158 99 104 1 154 -6 160 -24 3 -7 -26 -77 -64 -156 -62 -128 -85 -181 -152
-349 -123 -312 -146 -720 -58 -1060 11 -41 24 -92 29 -113 12 -48 65 -178 98
-237 96 -176 217 -306 345 -369 119 -58 149 -61 546 -61 383 0 426 4 524 51
167 80 249 305 201 554 -33 176 -114 270 -260 304 -28 6 -165 13 -310 15 -289
4 -321 10 -392 70 -133 115 -161 385 -70 666 51 156 135 334 254 536 100 168
96 164 178 174 136 15 199 43 267 118 73 81 93 151 93 327 0 247 -61 373 -213
443 -79 36 -153 41 -613 41 -260 1 -417 5 -437 12 -54 19 -83 78 -132 264 -40
150 -108 257 -185 289 -42 18 -113 25 -155 17z"/>
<path d="M8769 805 c-33 -18 -71 -76 -95 -145 -15 -44 -19 -83 -19 -200 0
-126 3 -154 24 -214 30 -86 92 -156 139 -156 57 0 107 59 149 177 26 71 25
307 -1 383 -49 144 -118 198 -197 155z"/>
<path d="M10799 805 c-32 -17 -68 -73 -94 -145 -16 -45 -20 -81 -20 -195 0
-177 23 -262 89 -331 53 -55 89 -59 141 -13 65 58 95 147 102 309 5 107 3 136
-15 198 -45 159 -118 223 -203 177z"/>
<path d="M9528 13 c18 -2 45 -2 60 0 15 2 0 4 -33 4 -33 0 -45 -2 -27 -4z"/>
<path d="M12948 13 c18 -2 45 -2 60 0 15 2 0 4 -33 4 -33 0 -45 -2 -27 -4z"/>
</g>
</svg>
